<?xml version="1.0" encoding="utf-8"?>
<!-- Generator: Adobe Illustrator 22.0.1, SVG Export Plug-In . SVG Version: 6.00 Build 0)  -->
<svg version="1.1" id="Layer_1" xmlns="http://www.w3.org/2000/svg" xmlns:xlink="http://www.w3.org/1999/xlink" x="0px" y="0px"
	 viewBox="0 0 421.3 296" style="enable-background:new 0 0 421.3 296;" xml:space="preserve">
<style type="text/css">
	.st0{fill:#2B2B2B;}
</style>
<g>
	<path class="st0" d="M17.2,24h57.9l106.5,106.2l17.2,17.2l-17.2,16.9L75.1,270.3H17.2l123.2-123.2L17.2,24z M75.1,24l106.5,106.2
		L75.1,24z M181.6,164.4L75.1,270.3L181.6,164.4z"/>
</g>
<g>
	<path class="st0" d="M404.2,106.2c0,22.5-7.7,42.2-24,58.2c-16,16-35.4,24-57.9,24H240v81.9h-41V147.2h41h82.2
		c11.1,0,20.6-4,28.6-12c8-8,12.3-17.6,12.3-28.9c0-11.1-4-20.9-12.3-28.9c-8-8-17.6-12-28.6-12H240l-41-41.3h123.2
		c22.5,0,41.9,8,57.9,24C396.2,64.3,404.2,83.7,404.2,106.2z"/>
</g>
</svg>
